<svg id="Camada_1" data-name="Camada 1" xmlns="http://www.w3.org/2000/svg" xmlns:xlink="http://www.w3.org/1999/xlink" viewBox="0 0 166.69 166.69"><defs><style>.cls-1{fill:none;stroke-miterlimit:10;stroke-width:2px;stroke:url(#Gradiente_sem_nome_4);}.cls-2{fill:url(#Gradiente_sem_nome_4-2);}</style><linearGradient id="Gradiente_sem_nome_4" x1="40.29" y1="11.97" x2="126.4" y2="154.72" gradientUnits="userSpaceOnUse"><stop offset="0" stop-color="#e52062"/><stop offset="1" stop-color="#7d1ded"/></linearGradient><linearGradient id="Gradiente_sem_nome_4-2" x1="63.43" y1="47.77" x2="112.97" y2="129.9" xlink:href="#Gradiente_sem_nome_4"/></defs><title>Favicon</title><circle class="cls-1" cx="83.34" cy="83.34" r="82.34"/><path class="cls-2" d="M107.51,78.71l-1.42,9h8.14l-2.45,15.49h-8.27L100.28,122H83.76L87,103.24H76.27L71.07,134H54.55l5.19-30.76H39.46l2.46-15.49h20.4l1.55-9H51.34l2.45-15.49H66.46l2.19-13.9H85.18L83,63.22H93.57l5.14-30.53h16.52L110.1,63.22h17.12l-2.45,15.49ZM91,78.71H80.4l-1.55,9H89.57Z"/></svg>