<svg id="Camada_1" data-name="Camada 1" xmlns="http://www.w3.org/2000/svg" xmlns:xlink="http://www.w3.org/1999/xlink" viewBox="0 0 595.28 841.89"><defs><style>.cls-1,.cls-3,.cls-4{fill:none;}.cls-2{clip-path:url(#clip-path);}.cls-3{stroke:#9e9e9e;}.cls-3,.cls-4{stroke-miterlimit:10;}.cls-4{stroke-width:2px;stroke:url(#Gradiente_sem_nome_4);}.cls-5{fill:url(#Gradiente_sem_nome_4-2);}.cls-6{fill:#efefef;}.cls-7{fill:#e52062;}.cls-8{fill:#7d1ded;}.cls-9{fill:url(#Gradiente_sem_nome_4-3);}.cls-10{fill:url(#Gradiente_sem_nome_4-4);}.cls-11{fill:url(#Gradiente_sem_nome_4-5);}.cls-12{fill:#262626;}.cls-13,.cls-15{fill:#fff;}.cls-14{fill:#9e9e9e;}.cls-15{font-size:11.19px;font-family:Roboto-Medium, Roboto;}.cls-16{letter-spacing:-0.09em;}.cls-17{letter-spacing:0.01em;}.cls-18{letter-spacing:-0.03em;}.cls-19{letter-spacing:0em;}</style><clipPath id="clip-path"><rect class="cls-1" y="498.66" width="595.28" height="343.23"/></clipPath><linearGradient id="Gradiente_sem_nome_4" x1="96.07" y1="549.29" x2="182.18" y2="692.04" gradientUnits="userSpaceOnUse"><stop offset="0" stop-color="#e52062"/><stop offset="1" stop-color="#7d1ded"/></linearGradient><linearGradient id="Gradiente_sem_nome_4-2" x1="44.75" y1="145.18" x2="541.79" y2="378.1" xlink:href="#Gradiente_sem_nome_4"/><linearGradient id="Gradiente_sem_nome_4-3" x1="175.67" y1="83.58" x2="218.81" y2="155.09" xlink:href="#Gradiente_sem_nome_4"/><linearGradient id="Gradiente_sem_nome_4-4" x1="119.22" y1="585.09" x2="168.76" y2="667.21" xlink:href="#Gradiente_sem_nome_4"/><linearGradient id="Gradiente_sem_nome_4-5" x1="415.94" y1="550.14" x2="501.02" y2="691.18" xlink:href="#Gradiente_sem_nome_4"/></defs><title>Identidade</title><g class="cls-2"><path class="cls-3" d="M509,652.16l-8.16,51.89h46.73L533.5,793H486L467.49,900.51H372.6L391.13,793H329.6L299.78,969.59H204.89L234.71,793H118.27l14.08-89H249.54l8.9-51.89h-72l14.09-89h72.71l12.63-79.84h94.89L368.16,563.2H429l29.5-175.29h94.89L523.84,563.2h98.35l-14.09,89Zm-94.89,0H353.33l-8.9,51.89H406Z"/></g><circle class="cls-4" cx="139.13" cy="620.66" r="82.34"/><rect class="cls-5" y="185.7" width="595.28" height="155.97"/><rect class="cls-6" y="342.69" width="595.28" height="155.97"/><circle class="cls-7" cx="43.44" cy="77.65" r="4.77"/><circle class="cls-8" cx="55.43" cy="77.65" r="4.77"/><path class="cls-8" d="M221.15,75.66h6.43v6.47h-6.43Zm0,10h6.43v24.9h-6.43Z"/><path class="cls-8" d="M252.53,103.3c0,5.28-4.58,7.92-10.06,7.92s-10.06-2.79-10.06-8.62h6.27c0,1.94,1.45,2.94,3.79,2.94s3.63-.8,3.63-2.24c0-4.28-13.39-.9-13.39-10.46,0-5.23,4.58-7.92,9.76-7.92,5,0,9.56,2.79,9.56,8.62h-6.27c0-1.94-1.45-2.94-3.29-2.94-2,0-3.34.8-3.34,2.24C239.13,97.17,252.53,93.69,252.53,103.3Z"/><path class="cls-8" d="M275.89,103.3c0,5.28-4.58,7.92-10.06,7.92s-10.06-2.79-10.06-8.62H262c0,1.94,1.45,2.94,3.79,2.94s3.64-.8,3.64-2.24c0-4.28-13.4-.9-13.4-10.46,0-5.23,4.58-7.92,9.76-7.92,5,0,9.56,2.79,9.56,8.62h-6.27c0-1.94-1.45-2.94-3.29-2.94-2,0-3.34.8-3.34,2.24C262.49,97.17,275.89,93.69,275.89,103.3Z"/><path class="cls-8" d="M278.88,98.07A13.18,13.18,0,1,1,292,111.22,13,13,0,0,1,278.88,98.07Zm19.92,0a6.75,6.75,0,1,0-6.77,6.87A6.62,6.62,0,0,0,298.8,98.07Z"/><path class="cls-7" d="M322.11,91.79h-4.28v18.73h-6.42V91.79h-4.34V85.62h4.34v-8h6.42v8h4.28Z"/><path class="cls-7" d="M337.31,105.89a6.08,6.08,0,0,0,5.13-2.49l6.32-.05c-1.54,5-5.93,7.87-11.5,7.87-8.12,0-13.35-5.73-13.35-13.15a12.73,12.73,0,0,1,13.2-13.15c7.32,0,12.4,5.83,12.4,13.15a11.27,11.27,0,0,1-.25,2.64H330.58A6.47,6.47,0,0,0,337.31,105.89Zm5.77-10.21a5.81,5.81,0,0,0-6-5,6.25,6.25,0,0,0-6.53,5Z"/><path class="cls-7" d="M386.86,93.74v16.78h-6.42V94.24c0-2.49-1.45-3.34-3.14-3.34s-3.68.94-3.68,4.18v15.44h-6.43V94.24c0-2.49-1.49-3.34-3.19-3.34s-3.68.94-3.68,4.18v15.44h-6.43V85.62h6.43v2.44a6.86,6.86,0,0,1,6-3.14,6.73,6.73,0,0,1,6,3.29,8.44,8.44,0,0,1,6.87-3.29C383.83,84.92,386.86,88,386.86,93.74Z"/><path class="cls-7" d="M246.5,114.56v34.87h-6.42v-12.9a9.93,9.93,0,0,1-8.12,3.63c-6.62,0-12.1-5.72-12.1-13.15s5.48-13.14,12.1-13.14a9.93,9.93,0,0,1,8.12,3.63v-2.94ZM240.08,127a6.9,6.9,0,1,0-6.93,7A6.7,6.7,0,0,0,240.08,127Z"/><path class="cls-7" d="M273.05,114.56v24.91h-6.42v-2.59c-1.4,2.14-3.69,3.28-6.78,3.28-4.63,0-8.12-3.58-8.12-9.71V114.56h6.43V130c0,2.84,1.69,4.19,3.93,4.19,2.54,0,4.54-1.45,4.54-5.23v-14.4Z"/><path class="cls-7" d="M291,134.83a6,6,0,0,0,5.13-2.49l6.33-.05c-1.55,5-5.93,7.87-11.51,7.87-8.12,0-13.35-5.72-13.35-13.15a12.72,12.72,0,0,1,13.2-13.14c7.32,0,12.4,5.82,12.4,13.14a11.22,11.22,0,0,1-.25,2.64H284.31A6.46,6.46,0,0,0,291,134.83Zm5.78-10.21a5.83,5.83,0,0,0-6-5,6.26,6.26,0,0,0-6.52,5Z"/><path class="cls-8" d="M334.26,127c0,7.43-5.47,13.15-12.15,13.15a9.8,9.8,0,0,1-8.07-3.58v12.85h-6.42V114.56H314v2.89a9.8,9.8,0,0,1,8.07-3.58C328.79,113.87,334.26,119.59,334.26,127Zm-6.42,0a6.9,6.9,0,0,0-13.8-.44v.89a6.9,6.9,0,0,0,13.8-.45Z"/><path class="cls-8" d="M358.37,123.63v15.84H352.1v-2.15a8.31,8.31,0,0,1-6.78,2.84c-4.43,0-8.36-2.64-8.36-7.87s3.93-7.82,8.36-7.82a10.07,10.07,0,0,1,6.78,2.2V124c0-2.94-1.5-4.19-3.89-4.19s-3.83,1.25-3.83,3.19H338.1c0-5.88,4.63-9.16,10.11-9.16S358.37,117.15,358.37,123.63Zm-6.27,8.66c0-1.89-1.75-3.08-4.58-3.08s-4.14,1.29-4.14,3.08,1.3,3.09,4.14,3.09S352.1,134.09,352.1,132.29Z"/><path class="cls-8" d="M376.85,114.06v7.18c-3.33-.4-6.82,1.09-6.82,5.92v12.31H363.6V114.56H370v3.74A6.88,6.88,0,0,1,376.85,114.06Z"/><path class="cls-8" d="M400,123.63v15.84h-6.27v-2.15a8.31,8.31,0,0,1-6.78,2.84c-4.43,0-8.36-2.64-8.36-7.87s3.93-7.82,8.36-7.82a10.07,10.07,0,0,1,6.78,2.2V124c0-2.94-1.5-4.19-3.89-4.19S386,121.09,386,123h-6.28c0-5.88,4.63-9.16,10.11-9.16S400,117.15,400,123.63Zm-6.27,8.66c0-1.89-1.75-3.08-4.58-3.08S385,130.5,385,132.29s1.3,3.09,4.14,3.09S393.69,134.09,393.69,132.29Z"/><path class="cls-8" d="M418.44,114.06v7.18c-3.33-.4-6.82,1.09-6.82,5.92v12.31h-6.43V114.56h6.43v3.74A6.88,6.88,0,0,1,418.44,114.06Z"/><path class="cls-9" d="M214.06,110.52l-1.24,7.87h7.09l-2.14,13.49h-7.2l-2.81,16.31H193.37l2.81-16.31h-9.33l-4.52,26.78H167.94l4.52-26.78H154.8l2.13-13.49h17.78l1.35-7.87H165.14L167.28,97h11l1.91-12.11h14.39L192.7,97h9.22l4.47-26.59h14.39L216.31,97h14.91l-2.13,13.49Zm-14.39,0h-9.22l-1.35,7.87h9.33Z"/><path class="cls-10" d="M163.3,616l-1.42,9H170l-2.45,15.49h-8.27l-3.22,18.72H139.54l3.23-18.72H132.05l-5.19,30.75H110.33l5.2-30.75H95.25l2.45-15.49h20.41l1.55-9H107.12l2.46-15.49h12.66l2.2-13.91H141l-2.19,13.91h10.58L154.49,570H171l-5.14,30.53H183L180.55,616Zm-16.53,0H136.18l-1.55,9h10.72Z"/><circle class="cls-11" cx="458.48" cy="620.66" r="82.34"/><path class="cls-6" d="M482.65,616l-1.42,9h8.14l-2.46,15.49h-8.26l-3.23,18.72H458.89l3.23-18.72H451.4l-5.19,30.75H429.68l5.2-30.75H414.6l2.45-15.49h20.41l1.55-9H426.47l2.46-15.49h12.66l2.2-13.91h16.53l-2.2,13.91H468.7L473.84,570h16.53l-5.14,30.53h17.13L499.91,616Zm-16.53,0H455.54l-1.55,9H464.7Z"/><path class="cls-12" d="M322,616l-1.42,9h8.13l-2.45,15.49H318l-3.22,18.72H298.25l3.23-18.72H290.76l-5.19,30.75H269l5.2-30.75H254l2.45-15.49h20.41l1.55-9H265.83l2.46-15.49H281l2.2-13.91h16.52l-2.19,13.91h10.58L313.2,570h16.53l-5.14,30.53h17.13L339.26,616Zm-16.53,0H294.89l-1.55,9h10.72Z"/><path class="cls-13" d="M221.15,224.34h6.43v6.47h-6.43Zm0,10h6.43v24.9h-6.43Z"/><path class="cls-13" d="M252.53,252c0,5.28-4.58,7.92-10.06,7.92s-10.06-2.79-10.06-8.62h6.27c0,1.95,1.45,2.94,3.79,2.94s3.63-.79,3.63-2.24c0-4.28-13.39-.9-13.39-10.46,0-5.23,4.58-7.92,9.76-7.92,5,0,9.56,2.79,9.56,8.62h-6.27c0-1.94-1.45-2.94-3.29-2.94-2,0-3.34.8-3.34,2.24C239.13,245.86,252.53,242.37,252.53,252Z"/><path class="cls-13" d="M275.89,252c0,5.28-4.58,7.92-10.06,7.92s-10.06-2.79-10.06-8.62H262c0,1.95,1.45,2.94,3.79,2.94s3.64-.79,3.64-2.24c0-4.28-13.4-.9-13.4-10.46,0-5.23,4.58-7.92,9.76-7.92,5,0,9.56,2.79,9.56,8.62h-6.27c0-1.94-1.45-2.94-3.29-2.94-2,0-3.34.8-3.34,2.24C262.49,245.86,275.89,242.37,275.89,252Z"/><path class="cls-13" d="M278.88,246.75A13.18,13.18,0,1,1,292,259.9,13,13,0,0,1,278.88,246.75Zm19.92,0a6.75,6.75,0,1,0-6.77,6.87A6.62,6.62,0,0,0,298.8,246.75Z"/><path class="cls-13" d="M322.11,240.48h-4.28V259.2h-6.42V240.48h-4.34V234.3h4.34v-8h6.42v8h4.28Z"/><path class="cls-13" d="M337.31,254.57a6.05,6.05,0,0,0,5.13-2.49l6.32-.05c-1.54,5-5.93,7.87-11.5,7.87-8.12,0-13.35-5.73-13.35-13.15a12.73,12.73,0,0,1,13.2-13.15c7.32,0,12.4,5.83,12.4,13.15a11.27,11.27,0,0,1-.25,2.64H330.58A6.47,6.47,0,0,0,337.31,254.57Zm5.77-10.21a5.81,5.81,0,0,0-6-5,6.25,6.25,0,0,0-6.53,5Z"/><path class="cls-13" d="M386.86,242.42V259.2h-6.42V242.92c0-2.49-1.45-3.34-3.14-3.34s-3.68.95-3.68,4.18V259.2h-6.43V242.92c0-2.49-1.49-3.34-3.19-3.34s-3.68.95-3.68,4.18V259.2h-6.43V234.3h6.43v2.44a6.86,6.86,0,0,1,6-3.14,6.73,6.73,0,0,1,6,3.29,8.44,8.44,0,0,1,6.87-3.29C383.83,233.6,386.86,236.69,386.86,242.42Z"/><path class="cls-13" d="M246.5,263.24v34.87h-6.42v-12.9a9.93,9.93,0,0,1-8.12,3.63c-6.62,0-12.1-5.72-12.1-13.14s5.48-13.15,12.1-13.15a9.93,9.93,0,0,1,8.12,3.63v-2.94Zm-6.42,12.46a6.9,6.9,0,1,0-6.93,7A6.7,6.7,0,0,0,240.08,275.7Z"/><path class="cls-13" d="M273.05,263.24v24.91h-6.42v-2.59c-1.4,2.14-3.69,3.28-6.78,3.28-4.63,0-8.12-3.58-8.12-9.71V263.24h6.43v15.44c0,2.84,1.69,4.19,3.93,4.19,2.54,0,4.54-1.45,4.54-5.23v-14.4Z"/><path class="cls-13" d="M291,283.51a6,6,0,0,0,5.13-2.49l6.33,0c-1.55,5-5.93,7.87-11.51,7.87-8.12,0-13.35-5.72-13.35-13.14a12.72,12.72,0,0,1,13.2-13.15c7.32,0,12.4,5.82,12.4,13.15a11.33,11.33,0,0,1-.25,2.64H284.31A6.46,6.46,0,0,0,291,283.51Zm5.78-10.21a5.83,5.83,0,0,0-6-5,6.26,6.26,0,0,0-6.52,5Z"/><path class="cls-13" d="M334.26,275.7c0,7.42-5.47,13.14-12.15,13.14a9.8,9.8,0,0,1-8.07-3.58v12.85h-6.42V263.24H314v2.89a9.8,9.8,0,0,1,8.07-3.58C328.79,262.55,334.26,268.27,334.26,275.7Zm-6.42,0a6.9,6.9,0,0,0-13.8-.45v.89a6.9,6.9,0,0,0,13.8-.44Z"/><path class="cls-13" d="M358.37,272.31v15.84H352.1V286a8.34,8.34,0,0,1-6.78,2.83c-4.43,0-8.36-2.64-8.36-7.87s3.93-7.81,8.36-7.81a10.07,10.07,0,0,1,6.78,2.19v-2.64c0-2.94-1.5-4.19-3.89-4.19s-3.83,1.25-3.83,3.19H338.1c0-5.88,4.63-9.16,10.11-9.16S358.37,265.83,358.37,272.31ZM352.1,281c0-1.89-1.75-3.08-4.58-3.08s-4.14,1.29-4.14,3.08,1.3,3.09,4.14,3.09S352.1,282.77,352.1,281Z"/><path class="cls-13" d="M376.85,262.75v7.17c-3.33-.4-6.82,1.09-6.82,5.92v12.31H363.6V263.24H370V267C371.27,264,373.81,262.75,376.85,262.75Z"/><path class="cls-13" d="M400,272.31v15.84h-6.27V286a8.34,8.34,0,0,1-6.78,2.83c-4.43,0-8.36-2.64-8.36-7.87s3.93-7.81,8.36-7.81a10.07,10.07,0,0,1,6.78,2.19v-2.64c0-2.94-1.5-4.19-3.89-4.19s-3.83,1.25-3.83,3.19h-6.28c0-5.88,4.63-9.16,10.11-9.16S400,265.83,400,272.31ZM393.69,281c0-1.89-1.75-3.08-4.58-3.08S385,279.18,385,281s1.3,3.09,4.14,3.09S393.69,282.77,393.69,281Z"/><path class="cls-13" d="M418.44,262.75v7.17c-3.33-.4-6.82,1.09-6.82,5.92v12.31h-6.43V263.24h6.43V267C412.86,264,415.4,262.75,418.44,262.75Z"/><path class="cls-13" d="M214.06,259.2l-1.24,7.87h7.09l-2.14,13.49h-7.2l-2.81,16.31H193.37l2.81-16.31h-9.33l-4.52,26.78H167.94l4.52-26.78H154.8l2.13-13.49h17.78l1.35-7.87H165.14l2.14-13.49h11l1.91-12.11h14.39l-1.91,12.11h9.22l4.47-26.58h14.39l-4.47,26.58h14.91l-2.13,13.49Zm-14.39,0h-9.22l-1.35,7.87h9.33Z"/><path class="cls-12" d="M221.15,377.94h6.43v6.48h-6.43Zm0,10h6.43v24.9h-6.43Z"/><path class="cls-12" d="M252.53,405.59c0,5.27-4.58,7.91-10.06,7.91s-10.06-2.78-10.06-8.61h6.27c0,1.94,1.45,2.94,3.79,2.94s3.63-.8,3.63-2.24c0-4.29-13.39-.9-13.39-10.46,0-5.23,4.58-7.92,9.76-7.92,5,0,9.56,2.79,9.56,8.61h-6.27c0-1.94-1.45-2.93-3.29-2.93-2,0-3.34.79-3.34,2.24C239.13,399.46,252.53,396,252.53,405.59Z"/><path class="cls-12" d="M275.89,405.59c0,5.27-4.58,7.91-10.06,7.91s-10.06-2.78-10.06-8.61H262c0,1.94,1.45,2.94,3.79,2.94s3.64-.8,3.64-2.24c0-4.29-13.4-.9-13.4-10.46,0-5.23,4.58-7.92,9.76-7.92,5,0,9.56,2.79,9.56,8.61h-6.27c0-1.94-1.45-2.93-3.29-2.93-2,0-3.34.79-3.34,2.24C262.49,399.46,275.89,396,275.89,405.59Z"/><path class="cls-12" d="M278.88,400.36A13.18,13.18,0,1,1,292,413.5,13,13,0,0,1,278.88,400.36Zm19.92,0a6.75,6.75,0,1,0-6.77,6.87A6.62,6.62,0,0,0,298.8,400.36Z"/><path class="cls-12" d="M322.11,394.08h-4.28v18.73h-6.42V394.08h-4.34v-6.17h4.34v-8h6.42v8h4.28Z"/><path class="cls-12" d="M337.31,408.18a6.08,6.08,0,0,0,5.13-2.49l6.32-.05c-1.54,5-5.93,7.86-11.5,7.86-8.12,0-13.35-5.72-13.35-13.14a12.73,12.73,0,0,1,13.2-13.15c7.32,0,12.4,5.82,12.4,13.15a11.33,11.33,0,0,1-.25,2.64H330.58A6.48,6.48,0,0,0,337.31,408.18ZM343.08,398a5.81,5.81,0,0,0-6-5,6.25,6.25,0,0,0-6.53,5Z"/><path class="cls-12" d="M386.86,396v16.79h-6.42V396.52c0-2.49-1.45-3.34-3.14-3.34s-3.68.95-3.68,4.19v15.44h-6.43V396.52c0-2.49-1.49-3.34-3.19-3.34s-3.68.95-3.68,4.19v15.44h-6.43v-24.9h6.43v2.44a6.84,6.84,0,0,1,6-3.14,6.72,6.72,0,0,1,6,3.28,8.43,8.43,0,0,1,6.87-3.28C383.83,387.21,386.86,390.3,386.86,396Z"/><path class="cls-12" d="M246.5,416.85v34.86h-6.42v-12.9a9.94,9.94,0,0,1-8.12,3.64c-6.62,0-12.1-5.73-12.1-13.15s5.48-13.15,12.1-13.15a9.94,9.94,0,0,1,8.12,3.64v-2.94Zm-6.42,12.45a6.9,6.9,0,1,0-6.93,7A6.7,6.7,0,0,0,240.08,429.3Z"/><path class="cls-12" d="M273.05,416.85v24.9h-6.42v-2.59c-1.4,2.14-3.69,3.29-6.78,3.29-4.63,0-8.12-3.59-8.12-9.71V416.85h6.43v15.44c0,2.84,1.69,4.18,3.93,4.18,2.54,0,4.54-1.44,4.54-5.23V416.85Z"/><path class="cls-12" d="M291,437.12a6.06,6.06,0,0,0,5.13-2.49l6.33-.05c-1.55,5-5.93,7.87-11.51,7.87-8.12,0-13.35-5.73-13.35-13.15a12.73,12.73,0,0,1,13.2-13.15c7.32,0,12.4,5.83,12.4,13.15a11.27,11.27,0,0,1-.25,2.64H284.31A6.46,6.46,0,0,0,291,437.12Zm5.78-10.21a5.82,5.82,0,0,0-6-5,6.25,6.25,0,0,0-6.52,5Z"/><path class="cls-12" d="M334.26,429.3c0,7.42-5.47,13.15-12.15,13.15a9.81,9.81,0,0,1-8.07-3.59v12.85h-6.42V416.85H314v2.89a9.81,9.81,0,0,1,8.07-3.59C328.79,416.15,334.26,421.88,334.26,429.3Zm-6.42,0a6.9,6.9,0,0,0-13.8-.45v.9a6.9,6.9,0,0,0,13.8-.45Z"/><path class="cls-12" d="M358.37,425.91v15.84H352.1v-2.14a8.34,8.34,0,0,1-6.78,2.84c-4.43,0-8.36-2.64-8.36-7.87s3.93-7.82,8.36-7.82A10.12,10.12,0,0,1,352.1,429v-2.64c0-2.94-1.5-4.18-3.89-4.18s-3.83,1.24-3.83,3.19H338.1c0-5.88,4.63-9.17,10.11-9.17S358.37,419.44,358.37,425.91Zm-6.27,8.67c0-1.89-1.75-3.09-4.58-3.09s-4.14,1.3-4.14,3.09,1.3,3.09,4.14,3.09S352.1,436.37,352.1,434.58Z"/><path class="cls-12" d="M376.85,416.35v7.17c-3.33-.4-6.82,1.1-6.82,5.93v12.3H363.6v-24.9H370v3.73A6.89,6.89,0,0,1,376.85,416.35Z"/><path class="cls-12" d="M400,425.91v15.84h-6.27v-2.14a8.34,8.34,0,0,1-6.78,2.84c-4.43,0-8.36-2.64-8.36-7.87s3.93-7.82,8.36-7.82a10.12,10.12,0,0,1,6.78,2.19v-2.64c0-2.94-1.5-4.18-3.89-4.18s-3.83,1.24-3.83,3.19h-6.28c0-5.88,4.63-9.17,10.11-9.17S400,419.44,400,425.91Zm-6.27,8.67c0-1.89-1.75-3.09-4.58-3.09s-4.14,1.3-4.14,3.09,1.3,3.09,4.14,3.09S393.69,436.37,393.69,434.58Z"/><path class="cls-12" d="M418.44,416.35v7.17c-3.33-.4-6.82,1.1-6.82,5.93v12.3h-6.43v-24.9h6.43v3.73A6.89,6.89,0,0,1,418.44,416.35Z"/><path class="cls-12" d="M214.06,412.81l-1.24,7.87h7.09l-2.14,13.49h-7.2l-2.81,16.3H193.37l2.81-16.3h-9.33L182.33,461H167.94l4.52-26.78H154.8l2.13-13.49h17.78l1.35-7.87H165.14l2.14-13.49h11l1.91-12.11h14.39l-1.91,12.11h9.22l4.47-26.59h14.39l-4.47,26.59h14.91l-2.13,13.49Zm-14.39,0h-9.22l-1.35,7.87h9.33Z"/><path class="cls-14" d="M38.56,801h2.08v2.09H38.56Zm0,3.22h2.08v8.06H38.56Z"/><path class="cls-14" d="M48.71,809.93c0,1.71-1.48,2.56-3.26,2.56s-3.25-.9-3.25-2.79h2c0,.63.47.95,1.22.95s1.18-.25,1.18-.72c0-1.39-4.33-.29-4.33-3.38,0-1.69,1.48-2.56,3.15-2.56a2.8,2.8,0,0,1,3.1,2.78h-2a1,1,0,0,0-1.07-.95c-.66,0-1.08.26-1.08.73C44.37,808,48.71,806.82,48.71,809.93Z"/><path class="cls-14" d="M56.26,809.93c0,1.71-1.48,2.56-3.25,2.56s-3.25-.9-3.25-2.79h2c0,.63.46.95,1.22.95s1.18-.25,1.18-.72c0-1.39-4.34-.29-4.34-3.38,0-1.69,1.48-2.56,3.16-2.56a2.79,2.79,0,0,1,3.09,2.78h-2a.94.94,0,0,0-1.06-.95c-.66,0-1.08.26-1.08.73C51.93,808,56.26,806.82,56.26,809.93Z"/><path class="cls-14" d="M57.23,808.24a4.26,4.26,0,1,1,4.25,4.25A4.21,4.21,0,0,1,57.23,808.24Zm6.45,0a2.19,2.19,0,1,0-2.2,2.22A2.14,2.14,0,0,0,63.68,808.24Z"/><path class="cls-14" d="M71.22,806.21H69.83v6.06H67.75v-6.06h-1.4v-2h1.4v-2.58h2.08v2.58h1.39Z"/><path class="cls-14" d="M76.13,810.77a2,2,0,0,0,1.66-.81h2a3.66,3.66,0,0,1-3.73,2.54,4.25,4.25,0,1,1,0-8.5,4,4,0,0,1,4,4.25,3.89,3.89,0,0,1-.08.85H74A2.08,2.08,0,0,0,76.13,810.77ZM78,807.46a1.89,1.89,0,0,0-2-1.61,2,2,0,0,0-2.11,1.61Z"/><path class="cls-14" d="M92.16,806.84v5.43H90.08V807a.94.94,0,0,0-1-1.08c-.57,0-1.2.3-1.2,1.35v5H85.8V807a1,1,0,0,0-1-1.08c-.57,0-1.2.3-1.2,1.35v5H81.5v-8.06h2.07V805a2.23,2.23,0,0,1,1.94-1,2.18,2.18,0,0,1,1.93,1.06A2.71,2.71,0,0,1,89.66,804C91.18,804,92.16,805,92.16,806.84Z"/><path class="cls-14" d="M46.76,813.57v11.28H44.68v-4.17a3.22,3.22,0,0,1-2.63,1.17,4.26,4.26,0,0,1,0-8.5,3.22,3.22,0,0,1,2.63,1.17v-.95Zm-2.08,4a2.23,2.23,0,1,0-2.24,2.27A2.17,2.17,0,0,0,44.68,817.6Z"/><path class="cls-14" d="M55.35,813.57v8.06H53.27v-.84a2.45,2.45,0,0,1-2.19,1.06c-1.5,0-2.63-1.16-2.63-3.14v-5.14h2.08v5a1.2,1.2,0,0,0,1.27,1.35c.82,0,1.47-.47,1.47-1.69v-4.66Z"/><path class="cls-14" d="M61.16,820.13a1.94,1.94,0,0,0,1.66-.81h2.05a3.64,3.64,0,0,1-3.72,2.54,4.25,4.25,0,1,1,0-8.5,4,4,0,0,1,4,4.25,3.84,3.84,0,0,1-.08.85H59A2.08,2.08,0,0,0,61.16,820.13Zm1.87-3.3a1.88,1.88,0,0,0-2-1.61A2,2,0,0,0,59,816.83Z"/><path class="cls-14" d="M75.15,817.6a4.08,4.08,0,0,1-3.93,4.25,3.14,3.14,0,0,1-2.61-1.16v4.16H66.53V813.57h2.08v.94a3.14,3.14,0,0,1,2.61-1.16A4.08,4.08,0,0,1,75.15,817.6Zm-2.08,0a2.23,2.23,0,0,0-4.46-.14v.29a2.14,2.14,0,0,0,2.22,2.12A2.17,2.17,0,0,0,73.07,817.6Z"/><path class="cls-14" d="M82.94,816.51v5.12h-2v-.69a2.68,2.68,0,0,1-2.19.91,2.54,2.54,0,1,1,0-5.07,3.24,3.24,0,0,1,2.19.71v-.86c0-1-.48-1.35-1.25-1.35s-1.24.4-1.24,1h-2a3,3,0,0,1,3.27-3A3,3,0,0,1,82.94,816.51Zm-2,2.8c0-.61-.56-1-1.48-1s-1.34.42-1.34,1,.42,1,1.34,1S80.91,819.89,80.91,819.31Z"/><path class="cls-14" d="M88.92,813.41v2.32a1.81,1.81,0,0,0-2.21,1.92v4H84.64v-8.06h2.07v1.21A2.24,2.24,0,0,1,88.92,813.41Z"/><path class="cls-14" d="M96.4,816.51v5.12h-2v-.69a2.71,2.71,0,0,1-2.19.91,2.54,2.54,0,1,1,0-5.07,3.28,3.28,0,0,1,2.19.71v-.86c0-1-.49-1.35-1.26-1.35s-1.24.4-1.24,1h-2a3,3,0,0,1,3.27-3A3,3,0,0,1,96.4,816.51Zm-2,2.8c0-.61-.57-1-1.49-1s-1.33.42-1.33,1,.42,1,1.33,1S94.37,819.89,94.37,819.31Z"/><path class="cls-14" d="M102.37,813.41v2.32a1.8,1.8,0,0,0-2.2,1.92v4H98.09v-8.06h2.08v1.21A2.22,2.22,0,0,1,102.37,813.41Z"/><path class="cls-14" d="M36.26,812.27l-.4,2.54h2.3l-.69,4.37H35.14l-.91,5.27H29.57l.91-5.27h-3L26,827.84H21.34l1.47-8.66H17.1l.69-4.37h5.75l.43-2.54H20.44l.69-4.37H24.7l.62-3.91H30l-.62,3.91h3l1.44-8.6h4.66L37,807.9h4.83l-.7,4.37Zm-4.65,0h-3l-.44,2.54h3Z"/><rect class="cls-7" width="595.28" height="26.54"/><text class="cls-15" transform="translate(15.72 17.54)">CAM<tspan class="cls-16" x="24.54" y="0">P</tspan><tspan x="30.72" y="0">AN</tspan><tspan class="cls-17" x="46.11" y="0">H</tspan><tspan x="54.15" y="0">A ISSO</tspan><tspan class="cls-18" x="88.77" y="0"> </tspan><tspan x="91.23" y="0">TEM QUE </tspan><tspan class="cls-16" x="141.05" y="0">P</tspan><tspan class="cls-19" x="147.22" y="0">ARAR</tspan></text></svg>