<svg id="Camada_1" data-name="Camada 1" xmlns="http://www.w3.org/2000/svg" viewBox="0 0 263.64 88.22"><defs><style>.cls-1{fill:#262626;}</style></defs><title>Logotipo - Preto</title><path class="cls-1" d="M66.35,5.21h6.43v6.48H66.35Zm0,10h6.43V40.08H66.35Z"/><path class="cls-1" d="M97.73,32.86c0,5.27-4.58,7.91-10.06,7.91S77.61,38,77.61,32.16h6.28c0,1.94,1.44,2.94,3.78,2.94s3.64-.8,3.64-2.24c0-4.29-13.4-.9-13.4-10.46,0-5.23,4.58-7.92,9.76-7.92,5,0,9.56,2.79,9.56,8.61H91c0-1.94-1.45-2.93-3.29-2.93-2,0-3.34.79-3.34,2.24C84.33,26.73,97.73,23.24,97.73,32.86Z"/><path class="cls-1" d="M121.09,32.86c0,5.27-4.58,7.91-10.06,7.91S101,38,101,32.16h6.28c0,1.94,1.44,2.94,3.78,2.94s3.64-.8,3.64-2.24c0-4.29-13.4-.9-13.4-10.46,0-5.23,4.58-7.92,9.76-7.92,5,0,9.56,2.79,9.56,8.61h-6.27c0-1.94-1.45-2.93-3.29-2.93-2,0-3.34.79-3.34,2.24C107.69,26.73,121.09,23.24,121.09,32.86Z"/><path class="cls-1" d="M124.08,27.63a13.18,13.18,0,1,1,13.15,13.14A13,13,0,0,1,124.08,27.63Zm19.92,0a6.75,6.75,0,1,0-13.49,0,6.75,6.75,0,1,0,13.49,0Z"/><path class="cls-1" d="M167.32,21.35H163V40.08h-6.42V21.35h-4.34V15.17h4.34v-8H163v8h4.29Z"/><path class="cls-1" d="M182.51,35.45a6.06,6.06,0,0,0,5.13-2.5l6.32,0c-1.54,5-5.92,7.86-11.5,7.86-8.12,0-13.35-5.72-13.35-13.14a12.72,12.72,0,0,1,13.2-13.15c7.32,0,12.4,5.82,12.4,13.15a11.33,11.33,0,0,1-.25,2.64H175.78A6.48,6.48,0,0,0,182.51,35.45Zm5.78-10.21a5.83,5.83,0,0,0-6-5,6.26,6.26,0,0,0-6.53,5Z"/><path class="cls-1" d="M232.07,23.29V40.08h-6.43V23.79c0-2.49-1.44-3.34-3.14-3.34s-3.68.95-3.68,4.19V40.08h-6.43V23.79c0-2.49-1.49-3.34-3.18-3.34s-3.69.95-3.69,4.19V40.08h-6.43V15.17h6.43v2.45a6.85,6.85,0,0,1,6-3.14,6.71,6.71,0,0,1,6,3.28,8.45,8.45,0,0,1,6.88-3.28C229,14.48,232.07,17.57,232.07,23.29Z"/><path class="cls-1" d="M91.7,44.12V79H85.28V66.08a9.91,9.91,0,0,1-8.12,3.64c-6.62,0-12.1-5.73-12.1-13.15s5.48-13.15,12.1-13.15a9.91,9.91,0,0,1,8.12,3.64V44.12ZM85.28,56.57a6.9,6.9,0,1,0-13.8,0,6.9,6.9,0,1,0,13.8,0Z"/><path class="cls-1" d="M118.25,44.12V69h-6.42V66.43c-1.4,2.14-3.69,3.29-6.78,3.29-4.63,0-8.11-3.59-8.11-9.71V44.12h6.42V59.56c0,2.84,1.69,4.18,3.94,4.18,2.54,0,4.53-1.44,4.53-5.23V44.12Z"/><path class="cls-1" d="M136.23,64.39a6.06,6.06,0,0,0,5.13-2.49l6.33,0c-1.54,5-5.93,7.87-11.51,7.87-8.11,0-13.34-5.73-13.34-13.15A12.73,12.73,0,0,1,136,43.42c7.33,0,12.41,5.83,12.41,13.15a11.27,11.27,0,0,1-.25,2.64H129.51A6.47,6.47,0,0,0,136.23,64.39ZM142,54.18a5.82,5.82,0,0,0-6-5,6.25,6.25,0,0,0-6.52,5Z"/><path class="cls-1" d="M179.47,56.57c0,7.42-5.48,13.15-12.16,13.15a9.77,9.77,0,0,1-8.06-3.59V79h-6.43V44.12h6.43V47a9.77,9.77,0,0,1,8.06-3.59C174,43.42,179.47,49.15,179.47,56.57Zm-6.43,0a6.9,6.9,0,0,0-13.79-.45V57A6.9,6.9,0,0,0,173,56.57Z"/><path class="cls-1" d="M203.57,53.18V69H197.3V66.88a8.33,8.33,0,0,1-6.77,2.84c-4.44,0-8.37-2.64-8.37-7.87S186.09,54,190.53,54a10.11,10.11,0,0,1,6.77,2.19V53.58c0-2.94-1.5-4.18-3.89-4.18s-3.83,1.24-3.83,3.19H183.3c0-5.88,4.64-9.17,10.11-9.17S203.57,46.71,203.57,53.18Zm-6.27,8.67c0-1.89-1.74-3.09-4.58-3.09s-4.14,1.3-4.14,3.09,1.3,3.09,4.14,3.09S197.3,63.64,197.3,61.85Z"/><path class="cls-1" d="M222.05,43.62v7.17c-3.33-.4-6.82,1.1-6.82,5.93V69h-6.42V44.12h6.42v3.73A6.91,6.91,0,0,1,222.05,43.62Z"/><path class="cls-1" d="M245.16,53.18V69h-6.27V66.88a8.33,8.33,0,0,1-6.77,2.84c-4.44,0-8.37-2.64-8.37-7.87S227.68,54,232.12,54a10.11,10.11,0,0,1,6.77,2.19V53.58c0-2.94-1.5-4.18-3.89-4.18s-3.83,1.24-3.83,3.19h-6.28c0-5.88,4.64-9.17,10.11-9.17S245.16,46.71,245.16,53.18Zm-6.27,8.67c0-1.89-1.74-3.09-4.58-3.09s-4.14,1.3-4.14,3.09,1.3,3.09,4.14,3.09S238.89,63.64,238.89,61.85Z"/><path class="cls-1" d="M263.64,43.62v7.17c-3.33-.4-6.82,1.1-6.82,5.93V69H250.4V44.12h6.42v3.73A6.91,6.91,0,0,1,263.64,43.62Z"/><path class="cls-1" d="M59.26,40.08,58,48h7.09L63,61.44h-7.2L53,77.74H38.57l2.81-16.3H32.05L27.53,88.22H13.14l4.52-26.78H0L2.14,48H19.91l1.35-7.87H10.34l2.14-13.49h11l1.91-12.11H39.81L37.9,26.59h9.22L51.59,0H66L61.51,26.59H76.42L74.29,40.08Zm-14.39,0H35.65L34.3,48h9.33Z"/></svg>