<svg id="Camada_1" data-name="Camada 1" xmlns="http://www.w3.org/2000/svg" xmlns:xlink="http://www.w3.org/1999/xlink" viewBox="0 0 92.41 52.42"><defs><style>.cls-1{fill:none;}.cls-2{fill:#fff;}.cls-3{clip-path:url(#clip-path);}.cls-4{fill:#e52062;}</style><clipPath id="clip-path"><rect class="cls-1" x="241.78" y="183.72" width="748.95" height="1334"/></clipPath></defs><title>logo_180</title><path class="cls-2" d="M19.66,0l.52.07a7,7,0,0,1,3.36,1.44A6.61,6.61,0,0,1,25.81,4.6a5.46,5.46,0,0,1-.35,4.57,8,8,0,0,1-5.3,4.15,11.35,11.35,0,0,1-3.39.3A20.94,20.94,0,0,1,10,12c-.73-.29-1.43-.63-2.15-.95L7.68,11c.21,0,.37,0,.52-.06a4,4,0,0,0,2.38-1.31,6.22,6.22,0,0,0,1.26-2.15,12.73,12.73,0,0,0,.47-1.71A7.1,7.1,0,0,1,18.15.12c.2,0,.41,0,.61-.08l.15,0Z"/><path class="cls-2" d="M19.72,39.48c-.93,4.29-1.71,8.59-2.31,12.94-1-4.39-2.1-8.73-3.29-13.07A60.46,60.46,0,0,1,3.59,37.84l.1-.21L8.21,29,9.82,26a.45.45,0,0,0,0-.42,61.92,61.92,0,0,0-6-11.62A42.78,42.78,0,0,0,.08,9.09.42.42,0,0,1,0,8.94l.18.11a56.27,56.27,0,0,0,8.1,4.25,32.23,32.23,0,0,0,5.24,1.75,19.35,19.35,0,0,0,3,.47,13.68,13.68,0,0,0,2.86-.12,27,27,0,0,0,5.09-1.25,58.08,58.08,0,0,0,6.73-2.78q2.66-1.28,5.2-2.75a.21.21,0,0,1,.14,0l-.17.18a110.63,110.63,0,0,0-8.06,9.51,53.69,53.69,0,0,0-3.64,5.44c-.28.49-.54,1-.81,1.49a.32.32,0,0,0,0,.34l4.7,8.92,1.66,3.16.1.2-.22.09a21.32,21.32,0,0,1-2.74.75c-1.05.22-2.12.39-3.19.51s-2.17.21-3.25.25Z"/><path class="cls-2" d="M65.31,32.82a7.93,7.93,0,0,1,1.46.33,4.09,4.09,0,0,1,1.76,1.06,3.93,3.93,0,0,1,1,2.12,8.84,8.84,0,0,1,.09,2.24,8.47,8.47,0,0,1-.36,2.07,4.39,4.39,0,0,1-1.2,2,4.9,4.9,0,0,1-1.54.91,10.18,10.18,0,0,1-2.31.59,27.74,27.74,0,0,1-4.17.28c-.67,0-1.34,0-2,0a14.12,14.12,0,0,1-3.36-.42,7.63,7.63,0,0,1-1.77-.74,4.36,4.36,0,0,1-2-2.73,8.21,8.21,0,0,1-.26-2.56,9.28,9.28,0,0,1,.18-1.75,6.91,6.91,0,0,1,.3-1,3,3,0,0,1,1.59-1.6A6.61,6.61,0,0,1,54.47,33l.56-.09.17,0c-.4-.11-.77-.19-1.13-.31a9.31,9.31,0,0,1-1-.4,3.34,3.34,0,0,1-1.9-2.38A9.54,9.54,0,0,1,51,27a5.84,5.84,0,0,1,.24-1.3,4,4,0,0,1,2-2.47A9.33,9.33,0,0,1,56,22.35a22.5,22.5,0,0,1,2.47-.29c1.1-.06,2.21-.08,3.32,0a18.15,18.15,0,0,1,2.94.26,8,8,0,0,1,2.29.78,3.94,3.94,0,0,1,1.9,2.21A6.64,6.64,0,0,1,69.25,27a10.62,10.62,0,0,1,0,1.87,6,6,0,0,1-.31,1.51,2.74,2.74,0,0,1-1.19,1.47,6.73,6.73,0,0,1-1.82.75l-.61.16ZM60,34.52l-2.18.12a3.94,3.94,0,0,0-1.3.32,1.49,1.49,0,0,0-.74.68,2.84,2.84,0,0,0-.29.8,7.06,7.06,0,0,0-.07,2.2,3.34,3.34,0,0,0,.27,1,1.55,1.55,0,0,0,.57.67,3.26,3.26,0,0,0,.91.41,6.93,6.93,0,0,0,1.57.17,26.27,26.27,0,0,0,3.55-.1,4.57,4.57,0,0,0,1.45-.38,1.7,1.7,0,0,0,.87-.88,3.13,3.13,0,0,0,.19-.54,6.57,6.57,0,0,0,.1-2.12,5.63,5.63,0,0,0-.18-.91,1.49,1.49,0,0,0-.94-1,5,5,0,0,0-1.66-.34C61.46,34.56,60.8,34.55,60,34.52Zm.07-3.19h.74a10.73,10.73,0,0,0,2-.16,1.84,1.84,0,0,0,1.52-1.38,6.56,6.56,0,0,0,.22-1.7,6.63,6.63,0,0,0-.07-1,1.48,1.48,0,0,0-.9-1.2c-.16-.06-.32-.14-.49-.19a5.74,5.74,0,0,0-1.54-.23,26.86,26.86,0,0,0-3.59.07,3.93,3.93,0,0,0-1.26.34,1.27,1.27,0,0,0-.57.53,2.15,2.15,0,0,0-.24.56A5.07,5.07,0,0,0,56,29.62a2.42,2.42,0,0,0,1.87,1.65,3.6,3.6,0,0,0,.66.06Z"/><path class="cls-2" d="M92.29,33.42c0,.91,0,1.83,0,2.74a15,15,0,0,1-.42,3.53,5.91,5.91,0,0,1-.73,1.76A5.34,5.34,0,0,1,89,43.3a8.78,8.78,0,0,1-2.45.79,20.38,20.38,0,0,1-3.66.29c-.84,0-1.68,0-2.51-.06a14.34,14.34,0,0,1-3.62-.59,7.31,7.31,0,0,1-1.23-.52A5.12,5.12,0,0,1,73,40.35,10.3,10.3,0,0,1,72.46,38a19,19,0,0,1-.11-2.39c0-1.71,0-3.41,0-5.12A17.32,17.32,0,0,1,72.7,27c.1-.43.22-.86.36-1.28a4.43,4.43,0,0,1,2-2.45,7.45,7.45,0,0,1,2.2-.85,16.16,16.16,0,0,1,2.18-.33c1.25-.1,2.49-.12,3.74-.1a23,23,0,0,1,2.87.24,9.53,9.53,0,0,1,2.72.78,5.21,5.21,0,0,1,2.44,2.31,7.8,7.8,0,0,1,.59,1.57,14.15,14.15,0,0,1,.42,2.51c.07.83.07,1.67.07,2.5v1.51Zm-15.24,0h0c0,.87,0,1.74,0,2.61,0,.57,0,1.14.08,1.72a4.63,4.63,0,0,0,.31,1.36,2,2,0,0,0,.77,1,3.71,3.71,0,0,0,.91.46,7.45,7.45,0,0,0,1.87.3c.65,0,1.3,0,2,0a10.67,10.67,0,0,0,2.26-.19,2.52,2.52,0,0,0,2.1-1.9,8.87,8.87,0,0,0,.28-2.29c0-2,0-3.95,0-5.93,0-.49,0-1,0-1.48a6.39,6.39,0,0,0-.31-1.67A2.4,2.4,0,0,0,86,26a3.57,3.57,0,0,0-.57-.23,7.47,7.47,0,0,0-2.1-.31,25.16,25.16,0,0,0-2.88,0,6.25,6.25,0,0,0-1.36.24,2.25,2.25,0,0,0-1.59,1.5c0,.18-.11.36-.15.55a11.33,11.33,0,0,0-.27,2.53C77,31.36,77.05,32.4,77.05,33.44Z"/><path class="cls-2" d="M46.53,44.18H41.22c0-.62,0-1.23,0-1.84V25.75a2.05,2.05,0,0,0-.39.39l-.34.4L37.61,24l.15-.12,2.06-1.6a.43.43,0,0,1,.27-.1h6.44s0,0,0,0,0,.05,0,.08V44.08A.84.84,0,0,1,46.53,44.18Z"/><path class="cls-2" d="M62.74,14h3.09a.11.11,0,0,1,.12.12v.14c0,.76,0,1.52,0,2.28a6.14,6.14,0,0,1-.32,2,2.14,2.14,0,0,1-1.19,1.26,6.59,6.59,0,0,1-1.57.46,14.16,14.16,0,0,1-2.25.21c-.41,0-.81,0-1.21,0a16.82,16.82,0,0,1-3-.27,5.17,5.17,0,0,1-1.33-.43,2.85,2.85,0,0,1-1.36-1.46,4.46,4.46,0,0,1-.36-1.49c0-.3,0-.6,0-.91,0-1.1,0-2.21,0-3.32a5.68,5.68,0,0,1,.38-2,3.06,3.06,0,0,1,2-1.86,8.33,8.33,0,0,1,1.63-.36,21.94,21.94,0,0,1,3.24-.12,20.69,20.69,0,0,1,2.22.15,7.68,7.68,0,0,1,1.42.32,2.25,2.25,0,0,1,1.39,1.34,4.25,4.25,0,0,1,.28,1.27c0,.14,0,.28,0,.41s0,.2-.18.2H63.41c-.18,0-.17,0-.2-.18a3.51,3.51,0,0,0-.13-.66,1,1,0,0,0-.63-.63,4.23,4.23,0,0,0-1.1-.23c-.52,0-1-.07-1.56-.06s-1.07,0-1.6.06a5.16,5.16,0,0,0-1.17.23,1.09,1.09,0,0,0-.66.62,2.63,2.63,0,0,0-.25,1c0,.41,0,.83,0,1.24q0,1.45,0,2.91a5,5,0,0,0,.15,1.09,1.24,1.24,0,0,0,.94,1c.31.07.62.15.94.19a13.86,13.86,0,0,0,2.23.08,8,8,0,0,0,1.82-.23,1.08,1.08,0,0,0,.83-.75,5.93,5.93,0,0,0,.19-.81,7.34,7.34,0,0,0,0-.81c0-.22,0-.23-.24-.23H59.7c-.15,0-.16,0-.16-.16,0-.46,0-.91,0-1.37,0-.16,0-.18.18-.18h3Z"/><path class="cls-2" d="M80,13V17a4.15,4.15,0,0,1-.16,1.21A2.49,2.49,0,0,1,78.36,20a5.85,5.85,0,0,1-1.47.36l-1.4.15h0c-.68,0-1.36.05-2,0a14.24,14.24,0,0,1-2.84-.27,4,4,0,0,1-1-.33,2.54,2.54,0,0,1-1.38-1.67A3.65,3.65,0,0,1,68,17.14V8.44a.11.11,0,0,1,.12-.12h2.47c.13,0,.14,0,.15.16V17a2,2,0,0,0,0,.35,1.13,1.13,0,0,0,.83,1,4.37,4.37,0,0,0,1.07.19c.64,0,1.28.05,1.92,0a9.3,9.3,0,0,0,1.66-.14,1.15,1.15,0,0,0,1-1,5.16,5.16,0,0,0,.08-.79v-8c0-.34,0-.32.31-.32h2.27c.09,0,.13,0,.13.14V13Z"/><path class="cls-2" d="M85.2,15.23a1.37,1.37,0,0,0,0,.19c0,.94,0,1.89,0,2.83,0,.21,0,.23.24.23h6.82c.15,0,.17,0,.17.18v1.6c0,.09,0,.13-.13.13H82.75c-.29,0-.29,0-.29-.28V8.54c0-.21,0-.22.23-.22h9.57c.08,0,.12,0,.12.13V10c0,.23,0,.24-.24.24H85.51c-.32,0-.34,0-.34.33,0,.82,0,1.65,0,2.47,0,0,0,.11,0,.16s0,.13.13.14h6.38c.36,0,.32,0,.32.33V15c0,.25,0,.25-.24.25H85.31Z"/><path class="cls-2" d="M47.19,18.48c0,.1,0,.16,0,.23v1.46c0,.22,0,.22-.23.22H37.77a.1.1,0,0,1-.11-.11v-.16q0-5.76,0-11.53a.28.28,0,0,1,0-.09c0-.15,0-.17.18-.18h2.37l.16,0c0,.05,0,.1,0,.14v9.67c0,.33,0,.33.33.33h6.48Z"/><path class="cls-2" d="M48.58,14.33V8.52c0-.19,0-.2.21-.2H51.1c.23,0,.23,0,.23.24V20.1c0,.32,0,.29-.3.29H48.72c-.1,0-.14-.05-.14-.15a.75.75,0,0,0,0-.15Z"/><path class="cls-2" d="M77.6,47.68a2.07,2.07,0,0,0,0,.6c0,.2,0,.39,0,.59V50H77c0-.16,0-2.62,0-2.81H78c.09,0,.11.06.14.12.13.31.27.61.4.92l.39.89.1.19c.33-.72.61-1.42.92-2.11H81c0,.31,0,.61,0,.92V50H80.4a3.75,3.75,0,0,1,0-.58V47.7h0c0,.06-.07.12-.1.19-.29.66-.6,1.33-.89,2a.25.25,0,0,1-.28.17c-.46,0-.33.08-.53-.34-.28-.61-.56-1.22-.83-1.83Z"/><path class="cls-2" d="M47,50.05h-.58a.18.18,0,0,1-.1-.09c-.05-.11-.09-.22-.13-.33a.16.16,0,0,0-.18-.12H44.76a.17.17,0,0,0-.18.12,2.52,2.52,0,0,1-.13.33.22.22,0,0,1-.12.09c-.18,0-.36,0-.58,0l1.13-2.83h.88c.08,0,.1.06.13.12l.33.8c.23.57.47,1.13.7,1.7Zm-2.21-.93H46l-.58-1.46h0C45.16,48.13,45,48.61,44.78,49.12Z"/><path class="cls-2" d="M23,48.15h-.66a2.17,2.17,0,0,1,0-.25.25.25,0,0,0-.21-.23,3.05,3.05,0,0,0-1,0,.33.33,0,0,0-.26.27,1.1,1.1,0,0,0,0,.31c0,.24,0,.48,0,.71v.1c0,.39.14.5.52.52a5,5,0,0,0,.67,0c.24,0,.32-.11.36-.34,0-.07,0-.13,0-.2H23a1.64,1.64,0,0,1-.11.66.36.36,0,0,1-.26.22,3.63,3.63,0,0,1-.45.1,4.24,4.24,0,0,1-1.33,0,.74.74,0,0,1-.67-.79c0-.37,0-.74,0-1.11a1.12,1.12,0,0,1,.05-.31.73.73,0,0,1,.59-.54A4,4,0,0,1,22,47.2l.37.06a.61.61,0,0,1,.55.54C23,47.91,23,48,23,48.15Z"/><path class="cls-2" d="M57.8,48.08h.5l0,.26a1.07,1.07,0,0,1,1-.28.62.62,0,0,1,.51.32.62.62,0,0,1,.45-.3,1.9,1.9,0,0,1,.75,0,.45.45,0,0,1,.35.36,1.92,1.92,0,0,1,0,.22v1.24a.6.6,0,0,1,0,.12,2,2,0,0,1-.54,0c0-.07,0-.13,0-.19v-1c0-.32-.11-.41-.42-.41h-.14a.42.42,0,0,0-.41.45V50h-.54a1.8,1.8,0,0,1,0-.22c0-.33,0-.66,0-1s-.1-.45-.47-.43-.49.15-.5.5,0,.6,0,.9V50h-.52A13.65,13.65,0,0,1,57.8,48.08Z"/><path class="cls-2" d="M39,48.28V47.23h.55V50A1.8,1.8,0,0,1,39,50v-.23s0,0,0,0a.77.77,0,0,1-.65.26,2,2,0,0,1-.49,0,.55.55,0,0,1-.46-.48,2.31,2.31,0,0,1,0-1,.51.51,0,0,1,.47-.46,3.65,3.65,0,0,1,.66,0,.57.57,0,0,1,.43.22ZM37.9,49a2.34,2.34,0,0,0,0,.39.3.3,0,0,0,.28.28,2.66,2.66,0,0,0,.49,0,.31.31,0,0,0,.27-.28,2.18,2.18,0,0,0,0-.72.33.33,0,0,0-.24-.27,1.1,1.1,0,0,0-.54,0,.29.29,0,0,0-.23.23C37.93,48.78,37.91,48.92,37.9,49Z"/><path class="cls-2" d="M56.3,50h-.51l0-.21s0,0,0,0a1.25,1.25,0,0,1-1.29.14.51.51,0,0,1-.28-.36,2.49,2.49,0,0,1,0-1.12.49.49,0,0,1,.39-.37,1.5,1.5,0,0,1,.84,0,1.8,1.8,0,0,1,.36.19V47.23h.52C56.33,47.37,56.34,49.74,56.3,50Zm-.55-.95a2.26,2.26,0,0,0,0-.35.33.33,0,0,0-.3-.32,2,2,0,0,0-.49,0,.25.25,0,0,0-.23.21,1.71,1.71,0,0,0,0,.84.29.29,0,0,0,.27.23,2.68,2.68,0,0,0,.49,0,.3.3,0,0,0,.27-.31A2.83,2.83,0,0,0,55.75,49.09Z"/><path class="cls-2" d="M85.67,50h-.54V47.23h.54v1.08a1.26,1.26,0,0,1,1.23-.2.43.43,0,0,1,.32.34,1.17,1.17,0,0,1,0,.26v1.22a.52.52,0,0,1,0,.11h-.53c0-.07,0-.13,0-.19v-1a1.55,1.55,0,0,0,0-.22.27.27,0,0,0-.26-.27,1.29,1.29,0,0,0-.34,0,.4.4,0,0,0-.41.4c0,.25,0,.51,0,.77S85.67,49.87,85.67,50Z"/><path class="cls-2" d="M64,49.15H62.37a1.46,1.46,0,0,0,0,.21c0,.27.11.35.37.36h.36c.23,0,.27,0,.36-.27H64a.42.42,0,0,1-.29.54.54.54,0,0,1-.21,0,3.5,3.5,0,0,1-1.12,0,.55.55,0,0,1-.49-.45,2.11,2.11,0,0,1,0-1,.57.57,0,0,1,.44-.45,2.6,2.6,0,0,1,1.27,0,.48.48,0,0,1,.4.43A1.9,1.9,0,0,1,64,49.15Zm-1.6-.32a4.59,4.59,0,0,0,1,0c0-.32-.07-.41-.38-.42h-.31C62.44,48.42,62.35,48.52,62.38,48.83Z"/><path class="cls-2" d="M42.14,49.15H40.53v.18c0,.3.1.38.4.39h.32c.19,0,.34-.06.37-.27h.51a.44.44,0,0,1-.34.56,2.33,2.33,0,0,1-.53.06,6.47,6.47,0,0,1-.76,0,.55.55,0,0,1-.49-.45,2.11,2.11,0,0,1,0-1,.56.56,0,0,1,.42-.45,2.76,2.76,0,0,1,1.31,0,.5.5,0,0,1,.38.41A1.77,1.77,0,0,1,42.14,49.15Zm-.55-.31c0-.34-.07-.43-.37-.44H40.9c-.3,0-.39.12-.35.44Z"/><path class="cls-2" d="M89.84,49.15H88.23c0,.05,0,.09,0,.13,0,.35.09.43.43.44h.28c.19,0,.34,0,.38-.27h.51a.44.44,0,0,1-.26.53.65.65,0,0,1-.21.05,3.7,3.7,0,0,1-1.15,0,.57.57,0,0,1-.5-.47,2.31,2.31,0,0,1,0-1,.58.58,0,0,1,.45-.46,2.64,2.64,0,0,1,1.28,0,.5.5,0,0,1,.39.43A2.27,2.27,0,0,1,89.84,49.15Zm-.57-.31c0-.31,0-.42-.33-.44h-.38c-.28,0-.36.14-.32.44Z"/><path class="cls-2" d="M51.2,49.15H49.56a1.46,1.46,0,0,0,0,.21c0,.28.11.35.39.36h.34a.3.3,0,0,0,.35-.28h.51a.43.43,0,0,1-.3.55l-.17,0a3.76,3.76,0,0,1-1.16,0,.54.54,0,0,1-.48-.45,2,2,0,0,1,0-1,.57.57,0,0,1,.47-.48,2.75,2.75,0,0,1,1.21,0,.48.48,0,0,1,.43.45C51.16,48.75,51.18,48.93,51.2,49.15Zm-.58-.31c0-.33-.07-.43-.38-.44h-.33c-.29,0-.37.13-.34.44Z"/><path class="cls-2" d="M25.41,49.15h-1.6a2.61,2.61,0,0,0,0,.28c0,.2.11.27.31.29h.35c.28,0,.31,0,.43-.27h.5a.44.44,0,0,1-.31.54,1.78,1.78,0,0,1-.39.07,3.3,3.3,0,0,1-.94,0,.54.54,0,0,1-.48-.46,2,2,0,0,1,0-1,.57.57,0,0,1,.43-.46,2.76,2.76,0,0,1,1.31,0,.47.47,0,0,1,.36.38A1.9,1.9,0,0,1,25.41,49.15Zm-.56-.3c0-.35-.06-.44-.39-.45h-.31c-.29,0-.39.14-.33.45Z"/><path class="cls-2" d="M74.43,49v-.38a.26.26,0,0,0-.24-.26,4.34,4.34,0,0,0-.51,0c-.14,0-.21.13-.24.26h-.51a.39.39,0,0,1,.25-.49,1,1,0,0,1,.34-.07c.33,0,.65,0,1,0a.5.5,0,0,1,.49.56c0,.45,0,.91,0,1.38h-.53l0-.18-.05,0a1.23,1.23,0,0,1-.25.14,2,2,0,0,1-.92,0,.48.48,0,0,1-.39-.5.54.54,0,0,1,0-.18.45.45,0,0,1,.37-.45,2.13,2.13,0,0,1,.94,0A1.59,1.59,0,0,1,74.43,49Zm-.56.75v0h.25l.1,0a.26.26,0,0,0,.21-.27.25.25,0,0,0-.22-.26,2.21,2.21,0,0,0-.37,0,1.09,1.09,0,0,0-.31,0c-.13,0-.17.13-.17.29s0,.22.19.25A1.75,1.75,0,0,0,73.87,49.77Z"/><path class="cls-2" d="M32.87,48.63h-.52a.41.41,0,0,1,.28-.5l.23-.05a3.68,3.68,0,0,1,1.1,0c.27.06.43.19.44.44,0,.5,0,1,0,1.5h-.52v-.17s0,0,0,0a.5.5,0,0,1-.29.16,2.1,2.1,0,0,1-.9,0,.47.47,0,0,1-.4-.47,1.62,1.62,0,0,1,0-.22.45.45,0,0,1,.37-.43,2.2,2.2,0,0,1,.92,0,1.47,1.47,0,0,1,.33.14c0-.15,0-.29,0-.43a.19.19,0,0,0-.17-.19,3.84,3.84,0,0,0-.59,0C33,48.39,32.9,48.52,32.87,48.63Zm.43,1.13v0l.39-.07c.12,0,.16-.12.17-.24a.22.22,0,0,0-.16-.24,1.4,1.4,0,0,0-.28-.06,1.78,1.78,0,0,0-.4,0,.26.26,0,0,0-.23.31c0,.17.06.24.23.27Z"/><path class="cls-2" d="M69.87,50.09l-.6-.07a.52.52,0,0,1-.46-.45,2.62,2.62,0,0,1,0-1.08.46.46,0,0,1,.37-.36,2.89,2.89,0,0,1,1.37,0,.5.5,0,0,1,.37.37,2.32,2.32,0,0,1,0,1.08.54.54,0,0,1-.47.44Zm.59-1c0-.13,0-.26,0-.38a.31.31,0,0,0-.24-.26,1.22,1.22,0,0,0-.6,0,.26.26,0,0,0-.22.23,2.38,2.38,0,0,0,0,.8.28.28,0,0,0,.22.23,1.44,1.44,0,0,0,.62,0,.27.27,0,0,0,.22-.23C70.43,49.34,70.44,49.2,70.46,49.07Z"/><path class="cls-2" d="M26.35,50h-.51a15.32,15.32,0,0,1,0-1.95,2,2,0,0,1,.54,0l0,.23a1.14,1.14,0,0,1,1.1-.23.49.49,0,0,1,.47.56c0,.3,0,.6,0,.9V50a2.35,2.35,0,0,1-.53,0,1.68,1.68,0,0,1,0-.2v-1c0-.39-.1-.49-.49-.48h-.1c-.29,0-.42.14-.44.43s0,.28,0,.41V50S26.36,50,26.35,50Z"/><path class="cls-2" d="M66,50v-.74c0-.17,0-.35,0-.53s-.1-.35-.35-.36a1.4,1.4,0,0,0-.35,0,.34.34,0,0,0-.3.3c0,.1,0,.21,0,.31v1a1,1,0,0,1-.54,0V48.08h.52l0,.23a1.14,1.14,0,0,1,1.13-.22.46.46,0,0,1,.43.49c0,.24,0,.49,0,.73V50Z"/><path class="cls-2" d="M51.59,48.08h.52l0,.25c.22-.31.54-.28.84-.27a1.63,1.63,0,0,1,.31,0,.47.47,0,0,1,.41.47,2.09,2.09,0,0,1,0,.25v1c0,.07,0,.13,0,.22a2.35,2.35,0,0,1-.53,0c0-.06,0-.12,0-.17v-1a1.09,1.09,0,0,0,0-.18c0-.21-.1-.3-.31-.32a3.11,3.11,0,0,0-.43,0,.3.3,0,0,0-.25.27,1.9,1.9,0,0,0,0,.41c0,.29,0,.57,0,.85a.28.28,0,0,1,0,.08h-.5A15.3,15.3,0,0,1,51.59,48.08Z"/><path class="cls-2" d="M83.56,50H83v-.26a1.17,1.17,0,0,1-1.21.24.45.45,0,0,1-.36-.47c0-.45,0-.91,0-1.36a.65.65,0,0,1,0-.11H82a1.48,1.48,0,0,1,0,.2c0,.34,0,.69,0,1a1.34,1.34,0,0,0,0,.2.2.2,0,0,0,.19.19,1.48,1.48,0,0,0,.47,0,.39.39,0,0,0,.33-.43v-1a1.62,1.62,0,0,1,0-.21h.52Z"/><path class="cls-2" d="M67,48.43l-.27,0v-.31l.26,0,0-.41a3.21,3.21,0,0,1,.54,0l0,.44c.29,0,.59,0,.89,0v.33h-.86s0,.06,0,.08v1c0,.15,0,.19.18.21s.29,0,.33-.15a1.57,1.57,0,0,0,0-.23.83.83,0,0,1,.47,0,.71.71,0,0,1-.08.47.43.43,0,0,1-.35.23,2.06,2.06,0,0,1-.82,0,.38.38,0,0,1-.31-.34,1.5,1.5,0,0,1,0-.29Z"/><path class="cls-2" d="M47.25,47.63h.54l0,.44h.89v.34H47.8v.32c0,.25,0,.5,0,.75s0,.22.2.23.29,0,.32-.2a1.13,1.13,0,0,0,0-.18,1.19,1.19,0,0,1,.46,0c.07.44-.12.72-.55.74a4,4,0,0,1-.69,0,.34.34,0,0,1-.31-.33,1.63,1.63,0,0,1,0-.31c0-.31,0-.62,0-.94l-.28,0v-.31l.27,0Z"/><path class="cls-2" d="M29,48.44v1a.37.37,0,0,0,0,.11c0,.14.06.18.18.19s.28,0,.32-.13a1.81,1.81,0,0,0,.06-.27H30a.83.83,0,0,1-.08.47.46.46,0,0,1-.37.26,2.21,2.21,0,0,1-.77,0,.42.42,0,0,1-.37-.46c0-.24,0-.49,0-.73v-.41l-.29,0v-.31l.13,0,.15,0,0-.42H29l0,.44h.9v.32C29.62,48.44,29.32,48.38,29,48.44Z"/><path class="cls-2" d="M92.05,48.8h-.47c0-.09,0-.17,0-.25a.17.17,0,0,0-.14-.15.43.43,0,0,0-.58.44c0,.32,0,.64,0,1V50a2.44,2.44,0,0,1-.54,0V48.09h.52l0,.23a.77.77,0,0,1,.73-.26C92,48.08,92.16,48.36,92.05,48.8Z"/><path class="cls-2" d="M30.32,48.09h.51v.24a.81.81,0,0,1,.71-.28c.41,0,.58.2.57.61a.62.62,0,0,1,0,.13,1.34,1.34,0,0,1-.49,0,.86.86,0,0,0,0-.24.26.26,0,0,0-.11-.14.43.43,0,0,0-.61.4c0,.33,0,.65,0,1V50a2.17,2.17,0,0,1-.51,0A15.76,15.76,0,0,1,30.32,48.09Z"/><path class="cls-2" d="M35.45,50H35a23.74,23.74,0,0,1,0-2.81h.5C35.48,47.37,35.49,49.75,35.45,50Z"/><path class="cls-2" d="M84.62,50h-.5c0-.14-.06-2.5,0-2.8a2.1,2.1,0,0,1,.5,0C84.64,47.37,84.66,49.72,84.62,50Z"/><path class="cls-2" d="M56.78,50V48.09h.51a12.6,12.6,0,0,1,0,1.95Z"/><path class="cls-2" d="M73.46,47.53l.19-.3.79.42-.11.2Z"/><path class="cls-2" d="M57.32,47.22v.37h-.54v-.35A1.94,1.94,0,0,1,57.32,47.22Z"/><g class="cls-3"><circle class="cls-4" cx="609.86" cy="234.6" r="535.68"/></g></svg>