<svg id="Camada_1" data-name="Camada 1" xmlns="http://www.w3.org/2000/svg" xmlns:xlink="http://www.w3.org/1999/xlink" viewBox="0 0 77.64 32.89"><defs><style>.cls-1{fill:none;}.cls-2{fill:#fff;}.cls-3{clip-path:url(#clip-path);}.cls-4{fill:#e52062;}</style><clipPath id="clip-path"><rect class="cls-1" x="241.04" y="87.95" width="748.95" height="1334"/></clipPath></defs><title>logo-atwrk</title><path class="cls-2" d="M39.24,25.18a.82.82,0,0,1-.74-.5L34.14,14,29.63,24.69a.78.78,0,0,1-.73.49h0a.81.81,0,0,1-.72-.53L21.39,5.26a.78.78,0,0,1,0-.6.79.79,0,0,1,.45-.41.84.84,0,0,1,.27,0,.78.78,0,0,1,.74.53L29,22.18l4.46-10.59a.78.78,0,0,1,.73-.49.79.79,0,0,1,.73.5L39.2,22.19,45.66,4.73a.81.81,0,0,1,.75-.52.86.86,0,0,1,.27,0,.79.79,0,0,1,.45.41.8.8,0,0,1,0,.61L40,24.66a.79.79,0,0,1-.73.52Z"/><path class="cls-2" d="M.82,28.67a.69.69,0,0,1-.28-.05.81.81,0,0,1-.49-1.05L8.87,3.49A.82.82,0,0,1,9.64,3h0a.81.81,0,0,1,.77.55l6.37,18.14a.84.84,0,0,1-.11.75.81.81,0,0,1-.67.35H6.85a.83.83,0,0,1,0-1.65h8L9.63,6.21l-8,21.92A.82.82,0,0,1,.82,28.67Z"/><path class="cls-2" d="M27.09,0H11a.83.83,0,0,0,0,1.66H18.2v20.1a.83.83,0,0,0,1.66,0V1.66h7.23a.83.83,0,0,0,0-1.66Z"/><path class="cls-2" d="M67.54,20.28a.84.84,0,0,1-.7-.38L61,10.71a.84.84,0,0,1,0-.84.83.83,0,0,1,.72-.42h2.45A2.89,2.89,0,0,0,66,8.78a2.67,2.67,0,0,0,.69-2A2.59,2.59,0,0,0,64.16,4H59.75V19.46a.82.82,0,0,1-1.64,0V3.13a.82.82,0,0,1,.82-.82h5.23a4.18,4.18,0,0,1,4.2,4.49A4.2,4.2,0,0,1,67.15,10a4.53,4.53,0,0,1-3,1.11h-.95l5,7.93a.79.79,0,0,1,.11.62.85.85,0,0,1-.36.51A.87.87,0,0,1,67.54,20.28Z"/><path class="cls-2" d="M76.81,26.19a.87.87,0,0,1-.59-.24l-6-6v5.18a.83.83,0,1,1-1.66,0v-19a.83.83,0,1,1,1.66,0V16l4.14-4.14a.85.85,0,0,1,.59-.24A.83.83,0,0,1,75.57,13l-5,5,6.79,6.79a.85.85,0,0,1,0,1.18A.87.87,0,0,1,76.81,26.19Z"/><path class="cls-2" d="M50.87,22.74a7,7,0,1,1,7-7A7,7,0,0,1,50.87,22.74Zm0-12.43a5.46,5.46,0,1,0,5.46,5.46A5.47,5.47,0,0,0,50.87,10.31Z"/><path class="cls-2" d="M54.32,25.1h-6.9a.76.76,0,0,1,0-1.52h6.9a.76.76,0,0,1,0,1.52Z"/><path class="cls-2" d="M54.32,27.55h-6.9a.76.76,0,0,1-.76-.76.75.75,0,0,1,.76-.75h6.9a.75.75,0,0,1,.76.75A.76.76,0,0,1,54.32,27.55Z"/><path class="cls-2" d="M50.87,32.89a3.88,3.88,0,0,1-4-3.82A.76.76,0,0,1,48.4,29a2.4,2.4,0,0,0,2.47,2.37A2.21,2.21,0,0,0,53,30.23,3.31,3.31,0,0,0,53.35,29a.75.75,0,0,1,.78-.73.76.76,0,0,1,.73.79A3.87,3.87,0,0,1,50.87,32.89Z"/><g class="cls-3"><circle class="cls-4" cx="609.12" cy="138.84" r="535.68"/></g></svg>